SplineFontDB: 3.2
FontName: Warlock
FullName: Highlander Regular
FamilyName: Highlander
Weight: Regular
Copyright: beccaelizabeth@geocities.com made this
Version: beccaelizabeth 0200 02/09/98
ItalicAngle: 0
UnderlinePosition: 0
UnderlineWidth: 0
Ascent: 800
Descent: 200
InvalidEm: 0
sfntRevision: 0x00010000
LayerCount: 2
Layer: 0 0 "Back" 1
Layer: 1 0 "Fore" 0
XUID: [1021 965 -301280927 10315]
StyleMap: 0x0040
FSType: 0
OS2Version: 3
OS2_WeightWidthSlopeOnly: 0
OS2_UseTypoMetrics: 0
CreationTime: 781469486
ModificationTime: 1690572075
PfmFamily: 81
TTFWeight: -1
TTFWidth: 5
LineGap: 0
VLineGap: 0
Panose: 0 0 0 0 0 0 0 0 0 0
OS2TypoAscent: 749
OS2TypoAOffset: 0
OS2TypoDescent: -16
OS2TypoDOffset: 0
OS2TypoLinegap: 0
OS2WinAscent: 934
OS2WinAOffset: 0
OS2WinDescent: 233
OS2WinDOffset: 0
HheadAscent: 749
HheadAOffset: 0
HheadDescent: -16
HheadDOffset: 0
OS2SubXSize: 133
OS2SubYSize: 133
OS2SubXOff: 0
OS2SubYOff: 0
OS2SupXSize: 133
OS2SupYSize: 133
OS2SupXOff: 0
OS2SupYOff: 0
OS2StrikeYSize: 67
OS2StrikeYPos: 345
OS2CapHeight: 700
OS2XHeight: 507
OS2Vendor: 'XXXX'
OS2CodePages: 00000001.00000000
OS2UnicodeRanges: 00000000.00000000.00000000.00000000
MarkAttachClasses: 1
DEI: 91125
LangName: 1033 "" "" "" "Highlander Regular" "" "beccaelizabeth 0200 02/09/98"
Encoding: UnicodeBmp
UnicodeInterp: none
NameList: AGL For New Fonts
DisplaySize: -48
AntiAlias: 1
FitToEm: 0
WinInfo: 0 16 4
BeginPrivate: 3
BlueValues 40 [-1 1 585 595 680 696 895 903 1065 1069]
OtherBlues 11 [-267 -263]
BlueShift 2 20
EndPrivate
BeginChars: 65538 66

StartChar: .notdef
Encoding: 65536 -1 0
Width: 1218
GlyphClass: 1
Flags: W
LayerCount: 2
Fore
SplineSet
76 0 m 1
 76 1219 l 1
 1143 1219 l 1
 1143 0 l 1
 76 0 l 1
1067 76 m 1
 1067 1143 l 1
 152 1143 l 1
 152 76 l 1
 1067 76 l 1
EndSplineSet
Validated: 1
EndChar

StartChar: numbersign
Encoding: 35 35 1
Width: 592
GlyphClass: 1
Flags: W
LayerCount: 2
Fore
SplineSet
496 871 m 1
 399 871 l 1
 369 732 l 1
 408 732 l 1
 453 660 l 1
 353 660 l 1
 339 603 l 1
 261 527 l 1
 293 660 l 1
 183 660 l 1
 171 607 l 1
 89 527 l 1
 120 660 l 1
 79 660 l 1
 39 732 l 1
 137 732 l 1
 167 871 l 1
 123 871 l 1
 81 943 l 1
 185 943 l 1
 195 993 l 1
 269 1065 l 1
 244 943 l 1
 355 943 l 1
 367 996 l 1
 441 1065 l 1
 415 943 l 1
 449 943 l 1
 496 871 l 1
339 871 m 1
 228 871 l 1
 197 732 l 1
 309 732 l 1
 339 871 l 1
EndSplineSet
Validated: 1
EndChar

StartChar: dollar
Encoding: 36 36 2
Width: 490
GlyphClass: 1
Flags: W
LayerCount: 2
Fore
SplineSet
403 256 m 1
 391 199 l 1
 307 141 l 1
 253 141 l 1
 253 95 l 1
 177 -3 l 1
 177 141 l 1
 121 141 l 1
 40 196 l 1
 24 252 l 1
 24 296 l 1
 144 413 l 1
 144 260 l 1
 177 231 l 1
 177 467 l 1
 133 467 l 1
 40 539 l 1
 27 611 l 1
 27 752 l 1
 73 849 l 1
 121 869 l 1
 177 869 l 1
 177 909 l 1
 253 1007 l 1
 253 869 l 1
 307 869 l 1
 383 812 l 1
 403 755 l 1
 403 707 l 1
 291 591 l 1
 291 748 l 1
 253 779 l 1
 253 540 l 1
 289 540 l 1
 383 472 l 1
 403 403 l 1
 403 256 l 1
177 544 m 1
 177 780 l 1
 144 751 l 1
 144 585 l 1
 177 544 l 1
291 259 m 1
 291 423 l 1
 253 460 l 1
 253 229 l 1
 291 259 l 1
EndSplineSet
Validated: 1
EndChar

StartChar: percent
Encoding: 37 37 3
Width: 501
GlyphClass: 1
Flags: W
LayerCount: 2
Fore
SplineSet
212 787 m 1
 161 747 l 1
 77 747 l 1
 24 787 l 1
 24 1029 l 1
 77 1069 l 1
 161 1069 l 1
 212 1029 l 1
 212 787 l 1
413 1068 m 1
 97 0 l 1
 23 0 l 1
 339 1068 l 1
 413 1068 l 1
413 39 m 1
 361 -1 l 1
 277 -1 l 1
 224 39 l 1
 224 281 l 1
 277 321 l 1
 361 321 l 1
 413 281 l 1
 413 39 l 1
144 787 m 1
 145 1031 l 1
 96 1031 l 1
 96 787 l 1
 144 787 l 1
349 40 m 1
 351 283 l 1
 300 283 l 1
 300 39 l 1
 349 40 l 1
EndSplineSet
Validated: 1
EndChar

StartChar: ampersand
Encoding: 38 38 4
Width: 488
GlyphClass: 1
Flags: W
LayerCount: 2
Fore
SplineSet
460 515 m 1
 403 445 l 1
 403 292 l 1
 327 185 l 1
 249 185 l 1
 249 87 l 1
 176 -3 l 1
 176 189 l 1
 101 189 l 1
 21 283 l 1
 21 461 l 1
 79 551 l 1
 24 636 l 1
 24 771 l 1
 101 865 l 1
 177 865 l 1
 176 972 l 1
 249 1063 l 1
 249 867 l 1
 324 867 l 1
 403 745 l 1
 291 632 l 1
 291 756 l 1
 249 797 l 1
 176 797 l 1
 136 753 l 1
 136 621 l 1
 173 585 l 1
 288 585 l 1
 232 512 l 1
 184 512 l 1
 136 472 l 1
 136 304 l 1
 173 256 l 1
 253 256 l 1
 288 301 l 1
 288 515 l 1
 460 515 l 1
EndSplineSet
Validated: 1
EndChar

StartChar: quotesingle
Encoding: 39 39 5
Width: 165
GlyphClass: 1
Flags: W
LayerCount: 2
Fore
SplineSet
69 1028 m 1
 51 899 l 1
 31 1029 l 1
 51 1067 l 1
 69 1028 l 1
EndSplineSet
Validated: 1
EndChar

StartChar: parenleft
Encoding: 40 40 6
Width: 354
GlyphClass: 1
Flags: W
LayerCount: 2
Fore
SplineSet
277 -71 m 1
 267 -71 245.333984375 -56.3330078125 212.000976562 -27 c 0
 163.333984375 16.3330078125 123.000976562 76.3330078125 91.0009765625 153 c 0
 70.333984375 203.666992188 54.1669921875 261.5 42.5 326.5 c 0
 30.8330078125 391.5 25 461 25 535 c 0
 25 683.666992188 47 809.666992188 91 913 c 0
 121 987.666992188 161.333007812 1047 212 1091 c 0
 244 1120.33300781 265.666992188 1135 277 1135 c 1
 273.666992188 1129 271 1123.66699219 269 1119 c 0
 261.666992188 1103 255 1087 249 1071 c 0
 227.666992188 1013 210.333984375 946.666992188 197.000976562 872 c 0
 178.333984375 768 169.000976562 655.666992188 169.000976562 535 c 0
 169.000976562 415.666992188 178.333984375 302.666992188 197.000976562 196 c 0
 210.333984375 123.333007812 227.666992188 56.666015625 249 -4.0009765625 c 0
 255 -20.66796875 263 -39.66796875 273 -61.0009765625 c 0
 273.666992188 -64.333984375 275 -67.6669921875 277 -71 c 1
EndSplineSet
Validated: 524289
EndChar

StartChar: parenright
Encoding: 41 41 7
Width: 360
GlyphClass: 1
Flags: W
LayerCount: 2
Fore
SplineSet
275 535 m 0
 275 385.666992188 253.66796875 258.998046875 211.000976562 154.998046875 c 0
 181.66796875 80.998046875 141.000976562 20.998046875 89.0009765625 -25.001953125 c 0
 57.66796875 -53.6689453125 36.0009765625 -69.001953125 24.0009765625 -71.001953125 c 1
 26.66796875 -65.001953125 29.0009765625 -59.6689453125 31.0009765625 -55.001953125 c 0
 39.0009765625 -36.3349609375 45.66796875 -19.66796875 51.0009765625 -5.0009765625 c 0
 72.333984375 56.33203125 89.6669921875 122.999023438 103 194.999023438 c 0
 121.666992188 301.666015625 131 414.999023438 131 534.999023438 c 0
 131 662.33203125 122 774.33203125 104 870.999023438 c 0
 92.6669921875 940.33203125 75.333984375 1006.33203125 52.0009765625 1068.99902344 c 0
 46.0009765625 1085.66601562 38.0009765625 1104.33300781 28.0009765625 1125 c 0
 27.333984375 1127.66699219 26.0009765625 1131 24.0009765625 1135 c 1
 35.333984375 1135 56.6669921875 1120.66699219 88 1092 c 0
 138.666992188 1046.66699219 179 987.666992188 209 915 c 0
 253 809 275 682.333007812 275 535 c 0
EndSplineSet
Validated: 524289
EndChar

StartChar: asterisk
Encoding: 42 42 8
Width: 496
GlyphClass: 1
Flags: W
LayerCount: 2
Fore
SplineSet
403 859 m 1
 269 859 l 1
 331 797 l 1
 332 729 l 1
 240 817 l 1
 240 689 l 1
 191 739 l 1
 191 819 l 1
 95 725 l 1
 95 793 l 1
 157 857 l 1
 79 857 l 1
 27 907 l 1
 151 907 l 1
 97 960 l 1
 99 1029 l 1
 191 937 l 1
 191 1065 l 1
 239 1017 l 1
 239 937 l 1
 327 1024 l 1
 327 953 l 1
 279 907 l 1
 353 907 l 1
 403 859 l 1
EndSplineSet
Validated: 1
EndChar

StartChar: plus
Encoding: 43 43 9
Width: 556
GlyphClass: 1
Flags: W
LayerCount: 2
Fore
SplineSet
468 371 m 1
 276 371 l 1
 276 176 l 1
 204 244 l 1
 204 371 l 1
 99 371 l 1
 29 439 l 1
 205 439 l 1
 205 637 l 1
 272 573 l 1
 271 439 l 1
 401 439 l 1
 468 371 l 1
EndSplineSet
Validated: 1
EndChar

StartChar: comma
Encoding: 44 44 10
Width: 229
GlyphClass: 1
Flags: W
LayerCount: 2
Fore
SplineSet
107 -8 m 1
 44 -71 l 1
 44 48 l 1
 83 48 l 2
 91.6669921875 47.3330078125 98.6669921875 43.3330078125 104 36 c 2
 107 27 l 1
 107 -8 l 1
EndSplineSet
Validated: 524289
EndChar

StartChar: hyphen
Encoding: 45 45 11
AltUni2: 0000ad.ffffffff.0 0000ad.ffffffff.0
Width: 541
GlyphClass: 1
Flags: W
LayerCount: 2
Fore
SplineSet
459 299 m 1
 92 299 l 1
 27 365 l 1
 393 365 l 1
 459 299 l 1
EndSplineSet
Validated: 1
EndChar

StartChar: period
Encoding: 46 46 12
Width: 233
GlyphClass: 1
Flags: W
LayerCount: 2
Fore
SplineSet
112 36 m 0
 112 26 108.5 17.5 101.5 10.5 c 0
 94.5 3.5 86 0 76 0 c 0
 66 0 57.5 3.5 50.5 10.5 c 0
 43.5 17.5 40 26 40 36 c 0
 40 46 43.5 54.5 50.5 61.5 c 0
 57.5 68.5 66 72 76 72 c 0
 86 72 94.5 68.5 101.5 61.5 c 0
 108.5 54.5 112 46 112 36 c 0
EndSplineSet
Validated: 524289
EndChar

StartChar: slash
Encoding: 47 47 13
Width: 550
GlyphClass: 1
Flags: W
LayerCount: 2
Fore
SplineSet
459 1068 m 1
 108 0 l 1
 25 0 l 1
 376 1068 l 1
 459 1068 l 1
EndSplineSet
Validated: 1
EndChar

StartChar: zero
Encoding: 48 48 14
Width: 310
GlyphClass: 1
Flags: W
LayerCount: 2
Fore
SplineSet
200.9140625 24.83984375 m 1
 220.203125 46.515625 239.4921875 70.9765625 258.780273438 98.2236328125 c 1
 258.780273438 622.616210938 l 1
 239.4921875 649.86328125 220.203125 674.32421875 200.9140625 696 c 1
 109.0859375 696 l 1
 89.796875 674.32421875 70.5078125 649.86328125 51.2197265625 622.616210938 c 1
 51.2197265625 98.2236328125 l 1
 70.5078125 70.9765625 89.796875 46.515625 109.0859375 24.83984375 c 1
 200.9140625 24.83984375 l 1
122.69921875 90.189453125 m 2
 122.700195312 626.357421875 l 2
 123.103515625 629.000976562 123.506835938 629.469726562 123.91015625 627.762695312 c 1
 132.590820312 640.017578125 141.270507812 650.09765625 149.950195312 658.002929688 c 0
 151.193359375 661.69140625 152.436523438 663.155273438 153.6796875 662.39453125 c 0
 154.9453125 663.184570312 156.2109375 661.760742188 157.477539062 658.122070312 c 0
 166.4375 650.255859375 175.397460938 640.17578125 184.357421875 627.881835938 c 1
 184.778320312 629.623046875 185.19921875 629.149414062 185.620117188 626.461914062 c 2
 185.620117188 90.0869140625 l 2
 185.18359375 87.3603515625 184.747070312 86.8828125 184.310546875 88.654296875 c 1
 175.350585938 76.60546875 166.390625 66.8056640625 157.430664062 59.2548828125 c 0
 156.180664062 55.638671875 154.930664062 54.271484375 153.681640625 55.1533203125 c 0
 152.453125 54.298828125 151.224609375 55.705078125 149.99609375 59.3720703125 c 0
 141.31640625 66.9619140625 132.63671875 76.76171875 123.956054688 88.771484375 c 1
 123.537109375 87.0341796875 123.118164062 87.5068359375 122.69921875 90.189453125 c 2
EndSplineSet
Validated: 524297
EndChar

StartChar: one
Encoding: 49 49 15
Width: 291
GlyphClass: 1
Flags: W
LayerCount: 2
Fore
SplineSet
109.329101562 646.909179688 m 1
 109.329101562 15.6650390625 l 1
 131.534179688 39.068359375 153.739257812 64.65625 175.944335938 92.4287109375 c 1
 175.944335938 698.479492188 l 1
 139.66015625 702.661132812 103.376953125 703.510742188 67.09375 701.02734375 c 1
 81.171875 685.797851562 95.25 667.758789062 109.329101562 646.909179688 c 1
EndSplineSet
Validated: 524329
EndChar

StartChar: two
Encoding: 50 50 16
Width: 290
GlyphClass: 1
Flags: W
LayerCount: 2
Fore
SplineSet
259.578125 72 m 1
 117.954101562 72 l 1
 119.013671875 187.4453125 l 1
 252.19921875 385.423828125 l 1
 252.19921875 611.84765625 l 1
 195.268554688 694.69921875 l 1
 97.0244140625 694.69921875 l 1
 39.8994140625 611.84375 l 1
 39.8994140625 427.836914062 l 1
 116.299804688 538.45703125 l 1
 116.299804688 617.110351562 l 1
 117.575195312 618.533203125 l 1
 144.275390625 648.333984375 l 1
 148.34375 652.875 l 1
 152.002929688 647.99609375 l 1
 175.702148438 616.395507812 l 1
 176.69921875 615.065429688 l 1
 176.69921875 420.169921875 l 1
 38.099609375 214.970703125 l 1
 38.099609375 5.486328125 l 1
 213.379882812 5.0068359375 l 1
 259.578125 72 l 1
EndSplineSet
Validated: 524297
EndChar

StartChar: three
Encoding: 51 51 17
Width: 291
GlyphClass: 1
Flags: W
LayerCount: 2
Fore
SplineSet
115.821289062 554.825195312 m 1
 115.821289062 610.75 l 1
 116.78125 612.064453125 l 1
 141.405273438 645.76171875 l 1
 145.44140625 651.28515625 l 1
 149.482421875 645.765625 l 1
 176.049804688 609.477539062 l 1
 177.012695312 608.162109375 l 1
 177.012695312 438.982421875 l 1
 176.0234375 437.655273438 l 1
 149.456054688 402.015625 l 1
 147.916015625 399.94921875 l 1
 145.34375 400.000976562 l 1
 118.044921875 400.546875 l 1
 118.044921875 343.16796875 l 1
 149.423828125 342.607421875 l 1
 152.026367188 342.561523438 l 1
 153.483398438 340.395507812 l 1
 176.163085938 306.698242188 l 1
 177.012695312 305.436523438 l 1
 177.012695312 90.4677734375 l 1
 176.139648438 89.1943359375 l 1
 152.1640625 54.203125 l 1
 148.29296875 48.552734375 l 1
 144.087890625 53.958984375 l 1
 116.872070312 88.9501953125 l 1
 115.829101562 90.291015625 l 1
 115.23046875 215.955078125 l 1
 39.63671875 139.215820312 l 1
 39.63671875 93.54296875 l 1
 97.560546875 7.591796875 l 1
 192.756835938 7.591796875 l 1
 251.901367188 91.015625 l 1
 251.901367188 287.809570312 l 1
 213.754882812 362.78515625 l 1
 250.60546875 441.75 l 1
 250.60546875 603.080078125 l 1
 193.302734375 689.65625 l 1
 97.494140625 689.65625 l 1
 39.62890625 607.525390625 l 1
 39.0439453125 478.62109375 l 1
 115.821289062 554.825195312 l 1
EndSplineSet
Validated: 524297
EndChar

StartChar: four
Encoding: 52 52 18
Width: 294
GlyphClass: 1
Flags: W
LayerCount: 2
Fore
SplineSet
218.799804688 85.7607421875 m 1
 218.799804688 302.439453125 l 1
 279.686523438 302.439453125 l 1
 218.16015625 376.271484375 l 1
 218.16015625 577.23828125 l 1
 144.3203125 666.296875 l 1
 144.3203125 372.439453125 l 1
 83.1201171875 372.439453125 l 1
 83.1201171875 577.227539062 l 1
 8.6396484375 666.377929688 l 1
 8.6396484375 379.694335938 l 1
 62.517578125 305 l 1
 143.6796875 305 l 1
 143.6796875 11.205078125 l 1
 218.799804688 85.7607421875 l 1
EndSplineSet
Validated: 524297
EndChar

StartChar: five
Encoding: 53 53 19
Width: 290
GlyphClass: 1
Flags: W
LayerCount: 2
Fore
SplineSet
243.650390625 679.83984375 m 1
 39.2802734375 679.83984375 l 1
 39.2802734375 349.384765625 l 1
 173.040039062 350.024414062 l 1
 173.040039062 90.21875 l 1
 172.372070312 89.0634765625 l 1
 148.692382812 48.1025390625 l 1
 144.286132812 40.4814453125 l 1
 139.9921875 48.166015625 l 1
 115.671875 91.6865234375 l 1
 115.040039062 92.8173828125 l 1
 115.040039062 233.73046875 l 1
 39.919921875 158.610351562 l 1
 39.919921875 81.2001953125 l 1
 101.91015625 6.3203125 l 1
 191.1015625 6.3203125 l 1
 249.432617188 86.140625 l 1
 248.170898438 335.879882812 l 1
 164.079101562 419.970703125 l 1
 120.110351562 419.361328125 l 1
 115.040039062 419.290039062 l 1
 115.040039062 604.080078125 l 1
 120.040039062 604.080078125 l 1
 167.890625 604.080078125 l 1
 243.650390625 679.83984375 l 1
EndSplineSet
Validated: 524297
EndChar

StartChar: six
Encoding: 54 54 20
Width: 289
GlyphClass: 1
Flags: W
LayerCount: 2
Fore
SplineSet
191.234375 367.639648438 m 1
 114.540039062 367.639648438 l 1
 114.540039062 600.05078125 l 1
 115.354492188 601.294921875 l 1
 139.674804688 638.415039062 l 1
 143.645507812 644.474609375 l 1
 147.90625 638.616210938 l 1
 173.505859375 603.416015625 l 1
 174.459960938 602.104492188 l 1
 174.459960938 471.30078125 l 1
 250.219726562 548.756835938 l 1
 250.219726562 594.451171875 l 1
 191.146484375 680.599609375 l 1
 99.0595703125 680.599609375 l 1
 38.7802734375 596.946289062 l 1
 38.7802734375 87.58203125 l 1
 99.0029296875 7.080078125 l 1
 192.44921875 7.080078125 l 1
 250.219726562 90.0478515625 l 1
 250.219726562 286.53515625 l 1
 191.234375 367.639648438 l 1
115.473632812 83.0107421875 m 1
 114.540039062 84.3134765625 l 1
 114.540039062 328.359375 l 1
 119.540039062 328.359375 l 1
 145.780273438 328.359375 l 1
 148.216796875 328.359375 l 1
 149.721679688 326.435546875 l 1
 177.241210938 291.236328125 l 1
 178.299804688 289.881835938 l 1
 178.299804688 84.0537109375 l 1
 177.077148438 82.6455078125 l 1
 147.637695312 48.7255859375 l 1
 143.486328125 43.9423828125 l 1
 139.793945312 49.0908203125 l 1
 115.473632812 83.0107421875 l 1
EndSplineSet
Validated: 524297
EndChar

StartChar: seven
Encoding: 55 55 21
Width: 314
GlyphClass: 1
Flags: W
LayerCount: 2
Fore
SplineSet
200 89.408203125 m 1
 200 275.31640625 l 1
 261.439453125 411.63671875 l 1
 261.439453125 681.400390625 l 1
 106.254882812 681.400390625 l 1
 52.560546875 615.500976562 l 1
 52.560546875 429.782226562 l 1
 127.6796875 522.411132812 l 1
 127.6796875 621 l 1
 132.6796875 621 l 1
 181.3203125 621 l 1
 186.3203125 621 l 1
 186.3203125 440.831054688 l 1
 125.520507812 307.7109375 l 1
 125.520507812 13.798828125 l 1
 200 89.408203125 l 1
EndSplineSet
Validated: 524297
EndChar

StartChar: eight
Encoding: 56 56 22
Width: 326
GlyphClass: 1
Flags: W
LayerCount: 2
Fore
SplineSet
215.04296875 9.759765625 m 1
 236.795898438 34.1181640625 258.546875 62.6630859375 280.298828125 95.396484375 c 1
 280.298828125 281.702148438 l 1
 235.37890625 360.971679688 l 1
 280.298828125 423.06640625 l 1
 280.298828125 613.454101562 l 1
 259.022460938 643.890625 237.74609375 670.072265625 216.469726562 692 c 1
 104.657226562 692 l 1
 85.0048828125 669.092773438 65.3525390625 642.028320312 45.7001953125 610.805664062 c 1
 45.7001953125 437.303710938 l 1
 88.322265625 360.583007812 l 1
 45.7001953125 279.272460938 l 1
 45.7001953125 92.716796875 l 1
 70.740234375 60.7353515625 95.7802734375 33.0830078125 120.8203125 9.759765625 c 1
 215.04296875 9.759765625 l 1
127.978515625 453.3671875 m 1
 127.978515625 618.85546875 l 2
 128.553710938 622.743164062 129.129882812 623.436523438 129.706054688 620.935546875 c 1
 139.092773438 635.436523438 148.479492188 646.743164062 157.866210938 654.856445312 c 0
 159.908203125 660.509765625 161.950195312 662.96875 163.9921875 662.234375 c 0
 165.888671875 662.762695312 167.78515625 660.075195312 169.681640625 654.171875 c 0
 178.641601562 644.977539062 187.6015625 632.817382812 196.561523438 617.69140625 c 1
 197.046875 619.997070312 197.533203125 619.336914062 198.01953125 615.7109375 c 2
 198.01953125 418.444335938 l 1
 196.840820312 416.603515625 l 1
 176.360351562 384.603515625 l 1
 169.361328125 373.666992188 l 1
 127.978515625 453.3671875 l 1
128.619140625 82.3212890625 m 2
 128.618164062 302.512695312 l 1
 129.796875 304.353515625 l 1
 150.276367188 336.353515625 l 1
 157.02734375 346.90234375 l 1
 199.9375 270.275390625 l 1
 199.9375 84.326171875 l 2
 199.279296875 80.2275390625 198.62109375 79.5107421875 197.961914062 82.17578125 c 1
 188.362304688 68.3408203125 178.762695312 57.8876953125 169.162109375 50.81640625 c 0
 167.336914062 45.38671875 165.51171875 43.3828125 163.686523438 44.8056640625 c 0
 161.84375 43.3623046875 160.000976562 45.333984375 158.158203125 50.7197265625 c 0
 148.985351562 57.119140625 139.8125 66.9326171875 130.639648438 80.16015625 c 1
 129.966796875 77.4658203125 129.29296875 78.1865234375 128.619140625 82.3212890625 c 2
EndSplineSet
Validated: 524297
EndChar

StartChar: nine
Encoding: 57 57 23
Width: 312
GlyphClass: 1
Flags: W
LayerCount: 2
Fore
SplineSet
122.109375 337.465820312 m 1
 185.961914062 337.465820312 l 1
 185.961914062 89.6240234375 l 1
 185.075195312 88.3447265625 l 1
 162.03515625 55.0654296875 l 1
 158.3828125 49.7880859375 l 1
 154.158203125 54.6162109375 l 1
 127.278320312 85.3359375 l 1
 126.041992188 86.7490234375 l 1
 126.041992188 244.788085938 l 1
 50.921875 136.344726562 l 1
 50.921875 90.2607421875 l 1
 109.896484375 9.7861328125 l 1
 202.69140625 9.7861328125 l 1
 261.71875 93.4052734375 l 1
 261.08203125 337.572265625 l 1
 261.08203125 595.908203125 l 1
 202.611328125 683.305664062 l 1
 111.853515625 683.305664062 l 1
 50.28125 597.104492188 l 1
 50.28125 439.014648438 l 1
 122.109375 337.465820312 l 1
185.961914062 377.385742188 m 1
 180.961914062 377.385742188 l 1
 154.08203125 377.385742188 l 1
 151.393554688 377.385742188 l 1
 149.907226562 379.634765625 l 1
 126.227539062 415.474609375 l 1
 125.40234375 416.723632812 l 1
 125.40234375 604.983398438 l 1
 126.547851562 606.369140625 l 1
 154.067382812 639.649414062 l 1
 158.390625 644.877929688 l 1
 162.108398438 639.19921875 l 1
 185.1484375 604 l 1
 185.961914062 602.756835938 l 1
 185.961914062 377.385742188 l 1
EndSplineSet
Validated: 524297
EndChar

StartChar: less
Encoding: 60 60 24
Width: 698
GlyphClass: 1
Flags: W
LayerCount: 2
Fore
SplineSet
604 268 m 1
 21 532 l 1
 604 800 l 1
 556 700 l 1
 197 532 l 1
 556 368 l 1
 604 268 l 1
EndSplineSet
Validated: 1
EndChar

StartChar: equal
Encoding: 61 61 25
Width: 544
GlyphClass: 1
Flags: W
LayerCount: 2
Fore
SplineSet
457 299 m 1
 92 299 l 1
 27 365 l 1
 393 365 l 1
 457 299 l 1
455 99 m 1
 92 99 l 1
 27 165 l 1
 393 165 l 1
 455 99 l 1
EndSplineSet
Validated: 1
EndChar

StartChar: greater
Encoding: 62 62 26
Width: 697
GlyphClass: 1
Flags: W
LayerCount: 2
Fore
SplineSet
603 540 m 1
 20 276 l 1
 68 376 l 1
 427 540 l 1
 68 708 l 1
 20 808 l 1
 603 540 l 1
EndSplineSet
Validated: 1
EndChar

StartChar: question
Encoding: 63 63 27
Width: 449
GlyphClass: 1
Flags: W
LayerCount: 2
Fore
SplineSet
359 668 m 1
 264 505 l 1
 264 281 l 1
 131 281 l 1
 131 511 l 1
 225 668 l 1
 224 952 l 1
 152 952 l 1
 152 800 l 1
 19 637 l 1
 19 964 l 1
 95 1069 l 1
 275 1069 l 1
 359 976 l 1
 359 668 l 1
245 115 m 1
 129 3 l 1
 129 244 l 1
 203 244 l 1
 245 245 l 1
 245 115 l 1
EndSplineSet
Validated: 1
EndChar

StartChar: asciicircum
Encoding: 94 94 28
Width: 393
GlyphClass: 1
Flags: W
LayerCount: 2
Fore
SplineSet
309 905 m 1
 253 905 l 1
 160 999 l 1
 65 905 l 1
 11 905 l 1
 160 1055 l 1
 309 905 l 1
EndSplineSet
Validated: 1
EndChar

StartChar: underscore
Encoding: 95 95 29
Width: 726
GlyphClass: 1
Flags: W
LayerCount: 2
Fore
SplineSet
725 -208 m 1
 0 -208 l 1
 0 -141 l 1
 725 -141 l 1
 725 -208 l 1
EndSplineSet
Validated: 1
EndChar

StartChar: grave
Encoding: 96 96 30
Width: 300
GlyphClass: 1
Flags: W
LayerCount: 2
Fore
SplineSet
171 956 m 1
 31 1020 l 1
 31 1063 l 1
 83 1063 l 1
 171 956 l 1
EndSplineSet
Validated: 1
EndChar

StartChar: exclamdown
Encoding: 161 161 32
Width: 220
GlyphClass: 1
Flags: W
LayerCount: 2
Fore
SplineSet
137 1021 m 2
 135 1008.33300781 133.000976562 1000.33300781 131.000976562 997 c 0
 122.333984375 980.333007812 109.666992188 972 93 972 c 2
 20 972 l 1
 20 1219 l 1
 137 1069 l 1
 137 1021 l 2
137.000976562 3 m 1
 19.0009765625 3 l 1
 19.0009765625 923 l 1
 137.000976562 923 l 1
 137.000976562 3 l 1
EndSplineSet
Validated: 524289
EndChar

StartChar: cent
Encoding: 162 162 33
Width: 457
GlyphClass: 1
Flags: W
LayerCount: 2
Fore
SplineSet
437 0 m 1
 304.000976562 0 l 1
 304.000976562 -75 l 1
 221.000976562 -183 l 1
 221.000976562 0 l 1
 129.000976562 0 l 1
 96.0009765625 9 l 1
 46.0009765625 30.3330078125 21.0009765625 71.666015625 21.0009765625 132.999023438 c 2
 21.0009765625 455.999023438 l 2
 21.0009765625 482.666015625 24.333984375 504.333007812 31.0009765625 521 c 0
 44.333984375 564.333007812 71.6669921875 586.333007812 113 587 c 2
 221 587 l 1
 221 664 l 1
 304 768 l 1
 304 591 l 1
 368 591 l 1
 437 509 l 1
 304 509 l 1
 304 80 l 1
 368 80 l 1
 437 0 l 1
213.000976562 80 m 1
 213.000976562 506.998046875 l 1
 159.000976562 506.998046875 l 2
 146.333984375 506.998046875 138.000976562 503.331054688 134.000976562 495.998046875 c 0
 130.000976562 488.665039062 127.000976562 478.33203125 125.000976562 464.999023438 c 2
 125.000976562 454.999023438 l 1
 127.000976562 120.999023438 l 2
 127.000976562 99.666015625 132.333984375 86.3330078125 143.000976562 81 c 1
 159.000976562 80 l 1
 213.000976562 80 l 1
EndSplineSet
Validated: 524289
EndChar

StartChar: sterling
Encoding: 163 163 34
Width: 446
GlyphClass: 1
Flags: W
LayerCount: 2
Fore
SplineSet
425 1 m 1
 11.9990234375 1.0009765625 l 1
 -49.0009765625 75.0009765625 l 1
 27.9990234375 75.0009765625 l 1
 27.9990234375 483.000976562 l 1
 -59.0009765625 587.000976562 l 1
 28.9990234375 587.000976562 l 1
 28.9990234375 961.000976562 l 2
 28.9990234375 1001.66796875 46.9990234375 1032.00097656 82.9990234375 1052.00097656 c 0
 94.33203125 1057.33398438 112.33203125 1062.66699219 136.999023438 1068 c 1
 227.999023438 1068 l 2
 260.666015625 1068 283.666015625 1050.66699219 296.999023438 1016 c 1
 304.999023438 964 l 1
 301.666015625 974 296.333007812 980.666992188 289 984 c 2
 265 989 l 1
 225 988 l 2
 204.333007812 988 191 979.666992188 185 963 c 2
 181 937 l 1
 181 587 l 1
 249 587 l 1
 324 496 l 1
 181 496 l 1
 181 79 l 1
 361 79 l 1
 425 1 l 1
EndSplineSet
Validated: 524289
EndChar

StartChar: section
Encoding: 167 167 35
Width: 237
GlyphClass: 1
Flags: W
LayerCount: 2
Fore
SplineSet
183 315 m 1
 119.001953125 250.997070312 l 1
 119.001953125 366.997070312 l 1
 109.001953125 383.997070312 l 2
 101.668945312 394.6640625 95.001953125 400.997070312 89.001953125 402.997070312 c 1
 85.6689453125 399.6640625 83.6689453125 396.331054688 83.001953125 392.998046875 c 2
 81.001953125 383.998046875 l 1
 81.001953125 315.998046875 l 1
 17.001953125 250.998046875 l 1
 17.001953125 374.998046875 l 2
 17.001953125 387.665039062 23.001953125 398.998046875 35.001953125 408.998046875 c 2
 44.001953125 415.998046875 l 1
 31.001953125 426.998046875 l 2
 23.6689453125 435.665039062 19.001953125 446.33203125 17.001953125 458.999023438 c 2
 17.001953125 546.999023438 l 1
 80.001953125 607.999023438 l 1
 80.001953125 466.999023438 l 1
 88.001953125 448.999023438 l 2
 94.001953125 438.33203125 101.001953125 432.33203125 109.001953125 430.999023438 c 0
 112.334960938 434.33203125 114.66796875 436.999023438 116.000976562 438.999023438 c 2
 117.000976562 447.999023438 l 1
 117.000976562 543.999023438 l 1
 183.000976562 607.999023438 l 1
 183.000976562 455.999023438 l 2
 183.000976562 444.666015625 178.000976562 434.333007812 168.000976562 425 c 2
 153.000976562 417 l 1
 161.000976562 412 l 2
 174.333984375 401.333007812 181.666992188 389 183 375 c 2
 183 315 l 1
EndSplineSet
Validated: 524289
EndChar

StartChar: copyright
Encoding: 169 169 36
Width: 469
GlyphClass: 1
Flags: W
LayerCount: 2
Fore
SplineSet
376 896 m 0
 376 848 359.5 807.5 326.5 774.5 c 0
 293.5 741.5 253 725 205 725 c 0
 157 725 116.666992188 741.5 84 774.5 c 0
 51.3330078125 807.5 35 848 35 896 c 0
 35 944 51.3330078125 984.5 84 1017.5 c 0
 116.666992188 1050.5 157 1067 205 1067 c 0
 253 1067 293.5 1050.5 326.5 1017.5 c 0
 359.5 984.5 376 944 376 896 c 0
359 896 m 0
 359 938.666992188 343.834960938 974.833007812 313.501953125 1004.5 c 0
 283.168945312 1034.16699219 247.001953125 1049 205.001953125 1049 c 0
 162.334960938 1049 126.16796875 1034.16699219 96.5009765625 1004.5 c 0
 66.833984375 974.833007812 52.0009765625 938.666015625 52.0009765625 895.999023438 c 0
 52.0009765625 853.999023438 66.66796875 817.999023438 96.0009765625 787.999023438 c 0
 125.333984375 757.999023438 161.666992188 742.999023438 205 742.999023438 c 0
 247.666992188 742.999023438 284 757.83203125 314 787.499023438 c 0
 344 817.166015625 359 853.333007812 359 896 c 0
273.001953125 816.999023438 m 1
 265.001953125 800.999023438 l 2
 257.001953125 789.666015625 247.668945312 782.999023438 237.001953125 780.999023438 c 2
 215.001953125 779.999023438 l 1
 195.001953125 779.999023438 l 2
 184.334960938 779.999023438 176.001953125 780.666015625 170.001953125 781.999023438 c 0
 164.001953125 783.33203125 155.668945312 791.665039062 145.001953125 806.998046875 c 2
 139.001953125 816.998046875 l 1
 139.001953125 975.998046875 l 1
 145.001953125 994.998046875 l 2
 151.001953125 1006.33105469 161.334960938 1012.33105469 176.001953125 1012.99804688 c 2
 193.001953125 1014.99804688 l 1
 213.001953125 1015.99804688 l 2
 223.001953125 1015.99804688 230.668945312 1014.83105469 236.001953125 1012.49804688 c 0
 241.334960938 1010.16503906 249.001953125 1003.33203125 259.001953125 991.999023438 c 2
 273.001953125 975.999023438 l 1
 273.001953125 959.999023438 l 1
 223.001953125 911.999023438 l 1
 221.001953125 975.999023438 l 1
 219.001953125 982.999023438 l 2
 216.334960938 988.33203125 212.66796875 990.999023438 208.000976562 990.999023438 c 0
 203.333984375 990.999023438 199.000976562 988.33203125 195.000976562 982.999023438 c 2
 191.000976562 974.999023438 l 1
 192.000976562 816.999023438 l 1
 193.000976562 810.999023438 l 2
 195.66796875 805.666015625 200.334960938 802.999023438 207.001953125 802.999023438 c 0
 212.334960938 802.999023438 216.334960938 804.999023438 219.001953125 808.999023438 c 2
 221.001953125 816.999023438 l 1
 221.001953125 831.999023438 l 1
 273.001953125 882.999023438 l 1
 273.001953125 816.999023438 l 1
EndSplineSet
Validated: 524289
EndChar

StartChar: ordfeminine
Encoding: 170 170 37
Width: 24
GlyphClass: 1
Flags: W
LayerCount: 2
Fore
SplineSet
16 1048 m 1
 3 1035 l 1
 3 1132 l 1
 -5 1141 l 1
 16 1141 l 1
 16 1048 l 1
EndSplineSet
Validated: 1
EndChar

StartChar: logicalnot
Encoding: 172 172 38
Width: 413
GlyphClass: 1
Flags: W
LayerCount: 2
Fore
SplineSet
299 1068 m 1
 61 0 l 1
 25 0 l 1
 263 1068 l 1
 299 1068 l 1
367 187 m 1
 325 187 l 1
 325 53 l 1
 272 0 l 1
 272 188 l 1
 223 188 l 1
 188 237 l 1
 188 427 l 1
 240 363 l 1
 240 237 l 1
 272 237 l 1
 272 427 l 1
 325 363 l 1
 325 237 l 1
 367 187 l 1
140 692 m 2
 140 670.666992188 133.666992188 654.998046875 121 644.998046875 c 0
 119 642.998046875 112.333007812 640.998046875 101 638.998046875 c 2
 40 638.998046875 l 2
 32 640.998046875 25.6669921875 642.998046875 21 644.998046875 c 0
 8.3330078125 654.998046875 2.3330078125 671.665039062 3 694.998046875 c 2
 3 723.998046875 l 1
 56 799.998046875 l 1
 56 694.998046875 l 1
 57 683.998046875 l 2
 59.6669921875 676.665039062 64.333984375 672.665039062 71.0009765625 671.998046875 c 0
 76.333984375 671.998046875 80.6669921875 675.665039062 84 682.998046875 c 2
 87 694.998046875 l 1
 87 824.998046875 l 1
 87 834.998046875 l 2
 86.3330078125 839.665039062 81.666015625 842.998046875 72.9990234375 844.998046875 c 2
 38.9990234375 844.998046875 l 1
 8.9990234375 886.998046875 l 1
 70.9990234375 886.998046875 l 2
 75.666015625 887.665039062 79.4990234375 888.83203125 82.4990234375 890.499023438 c 0
 85.4990234375 892.166015625 86.9990234375 898.333007812 86.9990234375 909 c 2
 86.9990234375 1012 l 1
 86.9990234375 1017 l 2
 84.9990234375 1027.66699219 79.666015625 1033 70.9990234375 1033 c 0
 65.666015625 1033 61.666015625 1030 58.9990234375 1024 c 2
 55.9990234375 1013 l 1
 55.9990234375 979 l 1
 2.9990234375 912 l 1
 2.9990234375 1013 l 1
 2.9990234375 1029 l 2
 5.666015625 1053 17.9990234375 1065 39.9990234375 1065 c 2
 102.999023438 1065 l 1
 112.999023438 1063 l 1
 129.666015625 1054.33300781 138.333007812 1037 139 1011 c 2
 139 909 l 2
 139 890.333007812 135.333007812 877 128 869 c 2
 116 861 l 1
 122 859 126 857 128 855 c 0
 136 847 140 834 140 816 c 2
 140 692 l 2
EndSplineSet
Validated: 524321
EndChar

StartChar: registered
Encoding: 174 174 39
Width: 469
GlyphClass: 1
Flags: W
LayerCount: 2
Fore
SplineSet
376 896 m 0
 376 848 359.5 807.5 326.5 774.5 c 0
 293.5 741.5 253 725 205 725 c 0
 157 725 116.666992188 741.5 84 774.5 c 0
 51.3330078125 807.5 35 848 35 896 c 0
 35 944 51.3330078125 984.5 84 1017.5 c 0
 116.666992188 1050.5 157 1067 205 1067 c 0
 253 1067 293.5 1050.5 326.5 1017.5 c 0
 359.5 984.5 376 944 376 896 c 0
359 896 m 0
 359 938.666992188 343.834960938 974.833007812 313.501953125 1004.5 c 0
 283.168945312 1034.16699219 247.001953125 1049 205.001953125 1049 c 0
 162.334960938 1049 126.16796875 1034.16699219 96.5009765625 1004.5 c 0
 66.833984375 974.833007812 52.0009765625 938.666015625 52.0009765625 895.999023438 c 0
 52.0009765625 853.999023438 66.66796875 817.999023438 96.0009765625 787.999023438 c 0
 125.333984375 757.999023438 161.666992188 742.999023438 205 742.999023438 c 0
 247.666992188 742.999023438 284 757.83203125 314 787.499023438 c 0
 344 817.166015625 359 853.333007812 359 896 c 0
267.001953125 939.999023438 m 1
 225.001953125 900.999023438 l 1
 225.001953125 956.999023438 l 1
 224.001953125 963.999023438 l 2
 222.001953125 966.666015625 218.001953125 968.999023438 212.001953125 970.999023438 c 2
 200.001953125 970.999023438 l 1
 200.001953125 812.999023438 l 1
 157.001953125 771.999023438 l 1
 157.001953125 963.999023438 l 1
 135.001953125 987.999023438 l 1
 239.001953125 987.999023438 l 1
 251.001953125 982.999023438 l 2
 261.001953125 977.666015625 266.334960938 969.666015625 267.001953125 958.999023438 c 2
 267.001953125 939.999023438 l 1
EndSplineSet
Validated: 524289
EndChar

StartChar: degree
Encoding: 176 176 40
Width: 332
GlyphClass: 1
Flags: W
LayerCount: 2
Fore
SplineSet
243 825 m 1
 237.666992188 813.666992188 222.333984375 804 197.000976562 796 c 2
 181.000976562 792 l 1
 85.0009765625 792 l 2
 72.333984375 792 62.333984375 793.333007812 55.0009765625 796 c 0
 34.333984375 801.333007812 24.333984375 811 25.0009765625 825 c 2
 25.0009765625 1028 l 1
 30.333984375 1038 42.0009765625 1047 60.0009765625 1055 c 2
 85.0009765625 1063 l 1
 181.000976562 1063 l 1
 212.000976562 1057 l 2
 231.333984375 1051.66699219 241.666992188 1042 243 1028 c 2
 243 825 l 1
160 824 m 1
 160.001953125 1029 l 1
 159.001953125 1033 l 2
 154.334960938 1038.33300781 145.66796875 1041.66601562 133.000976562 1042.99902344 c 1
 116.000976562 1038.99902344 l 2
 111.333984375 1035.66601562 108.666992188 1032.33300781 108 1029 c 2
 108 824 l 1
 112 817 l 2
 116.666992188 812.333007812 123.666992188 810.333007812 133 811 c 0
 141.666992188 811 149 813 155 817 c 2
 160 824 l 1
EndSplineSet
Validated: 524321
EndChar

StartChar: plusminus
Encoding: 177 177 41
Width: 556
GlyphClass: 1
Flags: W
LayerCount: 2
Fore
SplineSet
468 371 m 1
 276 371 l 1
 276 176 l 1
 204 244 l 1
 204 371 l 1
 99 371 l 1
 29 439 l 1
 205 439 l 1
 205 637 l 1
 272 573 l 1
 271 439 l 1
 401 439 l 1
 468 371 l 1
459 45 m 1
 92 45 l 1
 27 112 l 1
 393 112 l 1
 459 45 l 1
EndSplineSet
Validated: 1
EndChar

StartChar: mu
Encoding: 181 181 42
Width: 396
GlyphClass: 1
Flags: W
LayerCount: 2
Fore
SplineSet
305 73 m 1
 300.333007812 56.3330078125 295.999023438 44.3330078125 291.999023438 37 c 0
 277.999023438 12.3330078125 256.999023438 0 228.999023438 0 c 2
 102.999023438 0 l 1
 103.999023438 -59 l 1
 26.9990234375 -139 l 1
 26.9990234375 591 l 1
 135.999023438 481 l 1
 135.999023438 95 l 2
 137.999023438 83.6669921875 140.999023438 75.1669921875 144.999023438 69.5 c 0
 148.999023438 63.8330078125 156.33203125 61 166.999023438 61 c 0
 179.666015625 61 188.333007812 66.3330078125 193 77 c 2
 196 95 l 1
 196 481 l 1
 305 591 l 1
 305 73 l 1
EndSplineSet
Validated: 524289
EndChar

StartChar: paragraph
Encoding: 182 182 43
Width: 432
GlyphClass: 1
Flags: W
LayerCount: 2
Fore
SplineSet
368 701 m 1
 336 668.000976562 l 1
 301 668.000976562 l 1
 301 -0.9990234375 l 1
 268 -32.9990234375 l 1
 268 668.000976562 l 1
 205 668.000976562 l 1
 205 -0.9990234375 l 1
 171 -38.9990234375 l 1
 171 357.000976562 l 1
 133 364.333984375 102.333007812 382.666992188 79 412 c 0
 52.3330078125 444 39 486.333007812 39 539 c 0
 39 575.666992188 50 609 72 639 c 0
 101.333007812 681 145 701.666992188 203 701 c 2
 368 701 l 1
EndSplineSet
Validated: 524321
EndChar

StartChar: ordmasculine
Encoding: 186 186 44
Width: 45
GlyphClass: 1
Flags: W
LayerCount: 2
Fore
SplineSet
36 1033 m 1
 0.9990234375 1033 l 1
 0.9990234375 1067 l 1
 22.9990234375 1099 l 1
 22.9990234375 1128 l 1
 18.9990234375 1132 l 1
 15.9990234375 1128 l 1
 15.9990234375 1116 l 1
 2.9990234375 1097 l 1
 2.9990234375 1128 l 2
 3.666015625 1132.66699219 4.8330078125 1135.66699219 6.5 1137 c 0
 8.1669921875 1138.33300781 9.6669921875 1139.33300781 11 1140 c 2
 27 1140 l 2
 31.6669921875 1137.33300781 34.6669921875 1133.33300781 36 1128 c 2
 36 1092 l 1
 16 1061 l 1
 16 1044 l 1
 36 1044 l 1
 36 1033 l 1
EndSplineSet
Validated: 524289
EndChar

StartChar: questiondown
Encoding: 191 191 45
Width: 449
GlyphClass: 1
Flags: W
LayerCount: 2
Fore
SplineSet
245 989 m 2
 244.333007812 975.666992188 241.333007812 965.66796875 236 959.000976562 c 0
 228 948.333984375 217 941.666992188 203 939 c 2
 129 939 l 1
 129 1215 l 1
 245 1068 l 1
 245 989 l 2
359 89.0009765625 m 2
 356.333007812 68.333984375 352.33203125 53 346.999023438 43 c 0
 333.666015625 11.6669921875 309.666015625 -4 274.999023438 -4 c 2
 94.9990234375 -4 l 2
 67.666015625 -4 46.3330078125 13.3330078125 31 48 c 0
 26.3330078125 58.6669921875 22.3330078125 76.333984375 19 101.000976562 c 2
 19 428.000976562 l 1
 152 273.000976562 l 1
 152 163.000976562 l 2
 152 152.333984375 154 141.333984375 158 130.000976562 c 0
 162 118.66796875 172 113.000976562 188 113.000976562 c 0
 203.333007812 113.000976562 215 120.66796875 223 136.000976562 c 1
 227 160.000976562 l 1
 225 397.000976562 l 1
 131 555.000976562 l 1
 131 901.000976562 l 1
 264 901.000976562 l 1
 264 560.000976562 l 1
 359 397.000976562 l 1
 359 89.0009765625 l 2
EndSplineSet
Validated: 524289
EndChar

StartChar: AE
Encoding: 198 198 46
Width: 792
GlyphClass: 1
Flags: W
LayerCount: 2
Fore
SplineSet
721 96 m 1
 627 0 l 1
 291 -3 l 1
 291 492 l 1
 212 492 l 1
 212 141 l 1
 75 4 l 1
 75 467 l 1
 -20 561 l 1
 75 561 l 1
 75 975 l 1
 -16 1065 l 1
 721 1065 l 1
 644 989 l 1
 521 989 l 1
 521 585 l 1
 692 585 l 1
 605 497 l 1
 521 497 l 1
 521 96 l 1
 721 96 l 1
291 564 m 1
 291 959.000976562 l 1
 285 977.000976562 l 2
 279.666992188 988.333984375 270 994.666992188 256 996 c 2
 213 996 l 1
 213 564 l 1
 291 564 l 1
EndSplineSet
Validated: 524289
EndChar

StartChar: Oslash
Encoding: 216 216 48
Width: 465
GlyphClass: 1
Flags: W
LayerCount: 2
Fore
SplineSet
384 116 m 2
 380.666992188 94.6669921875 378.500976562 82.1669921875 377.500976562 78.5 c 0
 376.500976562 74.8330078125 373.66796875 68.3330078125 369.000976562 59 c 0
 351.000976562 21 322.66796875 1.6669921875 284.000976562 1 c 2
 132.000976562 1 l 1
 110.000976562 6.3330078125 94.0009765625 12.3330078125 84.0009765625 19 c 0
 52.0009765625 39.6669921875 36.0009765625 73 36.0009765625 119 c 2
 36.0009765625 949 l 2
 38.66796875 973.666992188 42.66796875 993 48.0009765625 1007 c 0
 64.0009765625 1046.33300781 92.333984375 1065.66601562 133.000976562 1064.99902344 c 2
 285.000976562 1064.99902344 l 1
 316.333984375 1059.66601562 338.666992188 1050.33300781 352 1037 c 0
 373.333007812 1015.66699219 384 984.666992188 384 944 c 2
 384 116 l 2
247.000976562 879 m 1
 247.000976562 919 l 2
 247.000976562 929 245.66796875 937.333007812 243.000976562 944 c 0
 237.66796875 960.666992188 227.000976562 969 211.000976562 969 c 0
 198.333984375 969 188.000976562 960.666992188 180.000976562 944 c 1
 175.000976562 919 l 1
 175.000976562 513 l 1
 247.000976562 879 l 1
247.000976562 159 m 1
 247.000976562 460 l 1
 181.000976562 124 l 1
 186.333984375 110.666992188 196.333984375 103.666992188 211.000976562 103 c 0
 223.66796875 103 233.66796875 112.333007812 241.000976562 131 c 2
 247.000976562 159 l 1
EndSplineSet
Validated: 524321
EndChar

StartChar: germandbls
Encoding: 223 223 49
Width: 636
GlyphClass: 1
Flags: W
LayerCount: 2
Fore
SplineSet
544 768 m 1
 480 705 l 1
 303 755 l 1
 361 531 l 1
 305 312 l 1
 480 359 l 1
 537 296 l 1
 476 235 l 1
 304 280 l 1
 353 64 l 1
 287 0 l 1
 221 64 l 1
 269 280 l 1
 100 235 l 1
 31 296 l 1
 96 359 l 1
 272 311 l 1
 213 531 l 1
 269 753 l 1
 96 705 l 1
 31 768 l 1
 100 831 l 1
 271 784 l 1
 244 897 l 1
 221 1000 l 1
 288 1065 l 1
 353 1000 l 1
 305 784 l 1
 476 831 l 1
 544 768 l 1
EndSplineSet
Validated: 1
EndChar

StartChar: divide
Encoding: 247 247 50
Width: 497
GlyphClass: 1
Flags: W
LayerCount: 2
Fore
SplineSet
283 509 m 0
 283 487.666992188 276.66796875 470.166992188 264.000976562 456.5 c 0
 251.333984375 442.833007812 235.666992188 436 217 436 c 0
 199 436 183.666992188 443.166992188 171 457.5 c 0
 158.333007812 471.833007812 152 489 152 509 c 0
 152 530.333007812 158.166992188 548 170.5 562 c 0
 182.833007812 576 198.333007812 583 217 583 c 0
 235 583 250.5 575.833007812 263.5 561.5 c 0
 276.5 547.166992188 283 529.666992188 283 509 c 0
405.000976562 331 m 1
 93.0009765625 331 l 1
 29.0009765625 397 l 1
 353.000976562 397 l 1
 405.000976562 331 l 1
293.000976562 200 m 0
 293.000976562 178.666992188 286.833984375 161.166992188 274.500976562 147.5 c 0
 262.16796875 133.833007812 246.66796875 127 228.000976562 127 c 0
 211.333984375 127 196.000976562 133.833007812 182.000976562 147.5 c 0
 168.000976562 161.166992188 161.000976562 178.666992188 161.000976562 200 c 0
 161.000976562 219.333007812 168.000976562 236.333007812 182.000976562 251 c 0
 196.000976562 265.666992188 211.333984375 273 228.000976562 273 c 0
 246.000976562 273 261.333984375 266 274.000976562 252 c 0
 286.66796875 238 293.000976562 220.666992188 293.000976562 200 c 0
EndSplineSet
Validated: 524289
EndChar

StartChar: ring
Encoding: 730 730 51
Width: 413
GlyphClass: 1
Flags: W
LayerCount: 2
Fore
SplineSet
113 647 m 1
 60 591 l 1
 60 983 l 1
 32 1019 l 1
 113 1019 l 1
 113 647 l 1
299 1068 m 1
 61 0 l 1
 25 0 l 1
 263 1068 l 1
 299 1068 l 1
367 187 m 1
 325 187 l 1
 325 53 l 1
 272 0 l 1
 272 188 l 1
 223 188 l 1
 188 237 l 1
 188 427 l 1
 240 363 l 1
 240 237 l 1
 272 237 l 1
 272 427 l 1
 325 363 l 1
 325 237 l 1
 367 187 l 1
EndSplineSet
Validated: 1
EndChar

StartChar: summation
Encoding: 931 931 52
Width: 509
GlyphClass: 1
Flags: W
LayerCount: 2
Fore
SplineSet
433 0 m 1
 15 0 l 1
 259 423 l 1
 11 848 l 1
 433 848 l 1
 433 672 l 1
 384 672 l 1
 384 771 l 1
 157 771 l 1
 359 424 l 1
 159 77 l 1
 381 77 l 1
 381 176 l 1
 433 176 l 1
 433 0 l 1
EndSplineSet
Validated: 1
EndChar

StartChar: Omega
Encoding: 937 937 53
Width: 45
GlyphClass: 1
Flags: W
LayerCount: 2
Fore
SplineSet
36 1060 m 2
 36 1054.66699219 32.9990234375 1050.33300781 26.9990234375 1047 c 2
 10.9990234375 1047 l 2
 5.666015625 1049.66699219 2.3330078125 1054 1 1060 c 2
 1 1068 l 1
 15 1087 l 1
 15 1060 l 1
 19 1055 l 1
 23 1060 l 1
 23 1093 l 1
 20 1099 l 1
 11 1099 l 1
 4 1108 l 1
 19 1108 l 1
 23 1115 l 1
 23 1140 l 1
 19 1145 l 1
 15 1140 l 1
 15 1132 l 1
 1 1115 l 1
 1 1140 l 2
 3.6669921875 1148 7 1152.33300781 11 1153 c 2
 27 1153 l 1
 31 1152 l 1
 36 1140 l 1
 36 1115 l 2
 34 1109 32.3330078125 1105 31 1103 c 2
 36 1091 l 1
 36 1060 l 2
EndSplineSet
Validated: 524289
EndChar

StartChar: pi
Encoding: 960 960 54
Width: 424
GlyphClass: 1
Flags: W
LayerCount: 2
Fore
SplineSet
369 463 m 1
 368.999023438 455 l 1
 352.33203125 433 326.33203125 421.666992188 290.999023438 421 c 2
 264.999023438 420 l 1
 287.999023438 420 l 1
 287.999023438 105 l 1
 211.999023438 13 l 1
 211.999023438 416 l 1
 167.999023438 413 l 1
 167.999023438 109 l 1
 90.9990234375 13 l 1
 90.9990234375 412 l 1
 71.666015625 412 57.3330078125 411 48 409 c 0
 38 409 26.3330078125 405 13 397 c 1
 43 423 l 1
 69 439.666992188 91.6669921875 448 111 448 c 2
 313 449 l 1
 345 453 l 2
 356.333007812 455 364.333007812 458.333007812 369 463 c 1
EndSplineSet
Validated: 524289
EndChar

StartChar: dagger
Encoding: 8224 8224 55
Width: 609
GlyphClass: 1
Flags: W
LayerCount: 2
Fore
SplineSet
0 721 m 1
 124 685 l 1
 292 711 l 1
 239 497 l 1
 305 0 l 1
 369 497 l 1
 317 711 l 1
 492 685 l 1
 609 720 l 1
 491 757 l 1
 317 735 l 1
 367 941 l 1
 304 1001 l 1
 243 941 l 1
 292 735 l 1
 124 757 l 1
 0 721 l 1
EndSplineSet
Validated: 9
EndChar

StartChar: bullet
Encoding: 8226 8226 56
Width: 286
GlyphClass: 1
Flags: W
LayerCount: 2
Fore
SplineSet
192 456 m 0
 192 435.333007812 184.5 417.5 169.5 402.5 c 0
 154.5 387.5 136.333007812 380 115 380 c 0
 93.6669921875 380 75.333984375 386.833007812 60.0009765625 400.5 c 0
 44.66796875 414.166992188 37.0009765625 432.666992188 37.0009765625 456 c 0
 37.0009765625 477.333007812 44.66796875 495.5 60.0009765625 510.5 c 0
 75.333984375 525.5 93.6669921875 533 115 533 c 0
 136.333007812 533 154.5 525.5 169.5 510.5 c 0
 184.5 495.5 192 477.333007812 192 456 c 0
EndSplineSet
Validated: 524289
EndChar

StartChar: trademark
Encoding: 8482 8482 57
Width: 605
GlyphClass: 1
Flags: W
LayerCount: 2
Fore
SplineSet
511 1024 m 2
 509 816.000976562 l 1
 445 747.000976562 l 1
 447 1025.00097656 l 1
 443 1035.00097656 l 2
 440.333007812 1040.33398438 436.333007812 1043.66699219 431 1045 c 2
 411 1045 l 1
 411 815 l 1
 345 747 l 1
 348 1027 l 2
 347.333007812 1031.66699219 346 1035.16699219 344 1037.5 c 0
 342 1039.83300781 337.666992188 1042.33300781 331 1045 c 2
 311 1045 l 1
 312 811 l 1
 249 752 l 1
 249 1035 l 1
 249 1067 l 1
 463 1067 l 1
 487 1061 l 2
 503 1054.33300781 511 1042 511 1024 c 2
191 1068.00097656 m 1
 191 1032.00097656 l 1
 139 1032.00097656 l 1
 139 803.000976562 l 1
 89 753.000976562 l 1
 89 1032.00097656 l 1
 36 1032.00097656 l 1
 36 1068.00097656 l 1
 191 1068.00097656 l 1
EndSplineSet
Validated: 524289
EndChar

StartChar: Delta
Encoding: 8710 8710 58
Width: 373
GlyphClass: 1
Flags: W
LayerCount: 2
Fore
SplineSet
113 647 m 1
 60 591 l 1
 60 983 l 1
 32 1019 l 1
 113 1019 l 1
 113 647 l 1
299 1068 m 1
 61 0 l 1
 25 0 l 1
 263 1068 l 1
 299 1068 l 1
331 -3 m 1
 192 -3 l 1
 192 131 l 1
 277 259 l 1
 277 376 l 1
 276 385 l 2
 273.333007812 392.333007812 268.333007812 396 261 396 c 0
 255.666992188 396 251.666992188 393 249 387 c 2
 247 377 l 1
 247 329 l 1
 193 252 l 1
 193 376 l 2
 193 386.666992188 195 397.5 199 408.5 c 0
 203 419.5 213 425 229 425 c 2
 293 425 l 2
 301 423 307.333007812 421 312 419 c 0
 324.666992188 411 331 396.666992188 331 376 c 2
 331 235 l 1
 248 112 l 1
 248 40 l 1
 331 40 l 1
 331 -3 l 1
EndSplineSet
Validated: 524289
EndChar

StartChar: product
Encoding: 8719 8719 59
Width: 706
GlyphClass: 1
Flags: W
LayerCount: 2
Fore
SplineSet
616 747 m 1
 618.666992188 741.666992188 613.666015625 732.666992188 600.999023438 720 c 0
 570.999023438 692.666992188 531.999023438 679 483.999023438 679 c 2
 442.999023438 676 l 1
 479.999023438 676 l 1
 479.999023438 151 l 1
 352.999023438 -1 l 1
 352.999023438 669 l 1
 279.999023438 665 l 1
 279.999023438 159 l 1
 150.999023438 -1 l 1
 150.999023438 663 l 1
 80.9990234375 659 l 2
 62.33203125 656.333007812 42.33203125 649.666015625 20.9990234375 638.999023438 c 1
 39.666015625 657.666015625 56.3330078125 671.333007812 71 680 c 0
 113 707.333007812 151 721 185 721 c 2
 523 724 l 1
 561 728 l 2
 587.666992188 732.666992188 606 739 616 747 c 1
EndSplineSet
Validated: 524289
EndChar

StartChar: infinity
Encoding: 8734 8734 60
Width: 822
GlyphClass: 1
Flags: W
LayerCount: 2
Fore
SplineSet
733 220 m 1
 689 180 l 1
 645 169 l 1
 600 169 l 1
 537 169 l 1
 505 169 l 1
 487 169 l 1
 467 171 l 1
 417 187 l 1
 389 204 l 1
 372 188 l 1
 308 171 l 1
 116 172 l 1
 72 184 l 1
 27 236 l 1
 25 316 l 1
 72 367 l 1
 119 376 l 1
 311 376 l 1
 369 359 l 1
 391 340 l 1
 408 357 l 1
 453 375 l 1
 651 375 l 1
 725 337 l 1
 733 320 l 1
 733 220 l 1
693 272 m 1
 684 289 l 1
 663 295 l 1
 447 295 l 1
 424 289 l 1
 413 279 l 1
 459 255 l 1
 480 248 l 1
 661 248 l 1
 683 253 l 1
 693 272 l 1
361 268 m 1
 316 292 l 1
 295 297 l 1
 112 299 l 1
 88 291 l 1
 80 273 l 1
 96 255 l 1
 112 252 l 1
 328 252 l 1
 361 268 l 1
EndSplineSet
Validated: 1
EndChar

StartChar: integral
Encoding: 8747 8747 61
Width: 273
GlyphClass: 1
Flags: W
LayerCount: 2
Fore
SplineSet
179 1056 m 1
 170.333007812 1042.66699219 162.333007812 1011.99902344 155 963.999023438 c 2
 148 895.999023438 l 1
 147 740.999023438 l 1
 141 280.999023438 l 2
 141 218.999023438 122 153.666015625 84 84.9990234375 c 0
 71.3330078125 61.666015625 52.3330078125 33.3330078125 27 -0 c 1
 47.6669921875 51.3330078125 63.6669921875 115 75 191 c 2
 85 289 l 1
 85 304 l 1
 85 339 l 1
 85 383 l 1
 85 429 l 1
 85 475 l 1
 85 517 l 1
 85 556 l 1
 85 591 l 1
 85 621 l 1
 85 649 l 1
 85 673 l 1
 85 693 l 1
 85 711 l 1
 85 725 l 1
 84 769 l 1
 84 827 l 2
 84 909 102.666992188 976 140 1028 c 0
 157.333007812 1052 170.333007812 1061.33300781 179 1056 c 1
EndSplineSet
Validated: 524321
EndChar

StartChar: notequal
Encoding: 8800 8800 62
Width: 550
GlyphClass: 1
Flags: W
LayerCount: 2
Fore
SplineSet
457 85 m 1
 207 85 l 1
 165 0 l 1
 104 0 l 1
 148 85 l 1
 92 85 l 1
 27 152 l 1
 181 152 l 1
 249 285 l 1
 92 285 l 1
 27 352 l 1
 283 352 l 1
 320 425 l 1
 376 425 l 1
 340 352 l 1
 393 352 l 1
 457 285 l 1
 307 285 l 1
 240 152 l 1
 393 152 l 1
 457 85 l 1
EndSplineSet
Validated: 1
EndChar

StartChar: lessequal
Encoding: 8804 8804 63
Width: 698
GlyphClass: 1
Flags: W
LayerCount: 2
Fore
SplineSet
604 268 m 1
 21 532 l 1
 604 800 l 1
 556 700 l 1
 197 532 l 1
 556 368 l 1
 604 268 l 1
607 152 m 1
 33 152 l 1
 33 219 l 1
 607 219 l 1
 607 152 l 1
EndSplineSet
Validated: 1
EndChar

StartChar: greaterequal
Encoding: 8805 8805 64
Width: 698
GlyphClass: 1
Flags: W
LayerCount: 2
Fore
SplineSet
615 532 m 1
 32 268 l 1
 80 368 l 1
 439 532 l 1
 80 700 l 1
 32 800 l 1
 615 532 l 1
603 152 m 1
 29 152 l 1
 29 219 l 1
 603 219 l 1
 603 152 l 1
EndSplineSet
Validated: 1
EndChar

